<?xml version="1.0" encoding="utf-8"?>
<!-- Generator: Adobe Illustrator 17.0.0, SVG Export Plug-In . SVG Version: 6.00 Build 0)  -->
<!DOCTYPE svg PUBLIC "-//W3C//DTD SVG 1.0//EN" "http://www.w3.org/TR/2001/REC-SVG-20010904/DTD/svg10.dtd">
<svg version="1.0" id="Layer_1" xmlns="http://www.w3.org/2000/svg" xmlns:xlink="http://www.w3.org/1999/xlink" x="0px" y="0px"
	 width="123px" height="113.749px" viewBox="0 0 123 113.749" enable-background="new 0 0 123 113.749" xml:space="preserve">
<path fill="#FFFFFF" d="M66.125,0c-19.18,0-36.171,9.544-46.478,24.131h1.685C31.442,10.34,47.754,1.367,66.125,1.367
	c30.607,0,55.508,24.901,55.508,55.508s-24.901,55.508-55.508,55.508S10.617,87.482,10.617,56.875c0-2.94,0.232-5.827,0.674-8.644
	H9.906c-0.432,2.819-0.656,5.706-0.656,8.644c0,31.361,25.514,56.875,56.875,56.875S123,88.236,123,56.875
	C123,25.514,97.486,0,66.125,0z"/>
<g>
	<path fill="#FFFFFF" d="M51.326,36.795l-6.038,6.038h0.601c1.383,0,2.048,0.717,2.048,2.049v3.995c0,0.513,0.308,0.82,0.82,0.82
		h5.327c0.563,0,0.819-0.307,0.819-0.82v-5.429C54.904,40.117,53.676,37.866,51.326,36.795z"/>
	<path fill="#FFFFFF" d="M34.416,55.535c0,0.973,0.461,1.588,1.383,1.895l12.139,3.995v6.812c0,1.383-0.717,2.049-2.048,2.049H43.43
		c-1.28,0-2.049-0.666-2.049-2.049v-3.944c0-0.563-0.256-0.819-0.819-0.819h-5.327c-0.512,0-0.819,0.256-0.819,0.819v5.378
		c0,4.815,2.612,7.376,7.375,7.376h5.737c4.815,0,7.375-2.561,7.375-7.376V57.84c0-0.972-0.461-1.536-1.331-1.894l-12.19-3.995
		v-5.211l-6.965,6.965V55.535z"/>
</g>
<path fill="#FFFFFF" d="M79.642,36.072H60.793c-0.461,0-0.768,0.308-0.768,0.819v39.336c0,0.513,0.307,0.82,0.768,0.82h18.849
	c0.615,0,0.819-0.307,0.819-0.82v-5.121c0-0.564-0.205-0.82-0.819-0.82H66.837V59.94h9.783c0.512,0,0.82-0.307,0.82-0.87v-5.071
	c0-0.564-0.308-0.871-0.82-0.871h-9.783V42.884h12.805c0.615,0,0.819-0.358,0.819-0.87v-5.122
	C80.461,36.38,80.257,36.072,79.642,36.072z"/>
<path fill="#FFFFFF" d="M99.668,49.799h5.121c0.513,0,0.82-0.307,0.82-0.82v-5.532c0-4.814-2.612-7.375-7.376-7.375h-5.736
	c-4.815,0-7.426,2.561-7.426,7.375v26.224c0,4.815,2.612,7.376,7.426,7.376h5.736c4.764,0,7.376-2.561,7.376-7.376V64.14
	c0-0.512-0.307-0.82-0.82-0.82h-5.121c-0.564,0-0.82,0.308-0.82,0.82v4.098c0,1.383-0.717,2.049-2.049,2.049h-2.663
	c-1.331,0-2.048-0.666-2.048-2.049V44.882c0-1.331,0.666-2.049,2.048-2.049h2.663c1.331,0,2.049,0.717,2.049,2.049v4.097
	C98.848,49.492,99.104,49.799,99.668,49.799z"/>
<g>
	<path fill="#FFFFFF" d="M4.857,28.639c1.784,0,2.732,0.949,2.732,2.732v2.011c0,0.189-0.095,0.304-0.304,0.304H5.313
		c-0.19,0-0.304-0.114-0.304-0.304v-1.48c0-0.494-0.247-0.759-0.759-0.759H3.34c-0.474,0-0.759,0.266-0.759,0.759v2.618l4.516,1.48
		c0.323,0.133,0.494,0.341,0.494,0.702v4.383c0,1.784-0.949,2.732-2.732,2.732H2.732C0.968,43.819,0,42.87,0,41.086v-1.992
		c0-0.209,0.114-0.304,0.304-0.304h1.974c0.209,0,0.304,0.095,0.304,0.304v1.461c0,0.512,0.284,0.759,0.759,0.759H4.25
		c0.494,0,0.759-0.247,0.759-0.759v-2.524l-4.497-1.48C0.171,36.437,0,36.209,0,35.849v-4.478c0-1.784,0.968-2.732,2.732-2.732
		H4.857z"/>
	<path fill="#FFFFFF" d="M9.486,28.942c0-0.19,0.114-0.304,0.304-0.304h4.554c1.784,0,2.732,0.949,2.732,2.732v4.63
		c0,1.765-0.949,2.732-2.732,2.732h-2.277v4.782c0,0.19-0.095,0.304-0.304,0.304H9.789c-0.189,0-0.304-0.114-0.304-0.304V28.942z
		 M13.736,36.229c0.512,0,0.759-0.284,0.759-0.759v-3.567c0-0.494-0.247-0.759-0.759-0.759h-1.67v5.085H13.736z"/>
	<path fill="#FFFFFF" d="M21.552,41.314h4.516c0.209,0,0.304,0.114,0.304,0.304v1.897c0,0.209-0.095,0.304-0.304,0.304h-6.793
		c-0.189,0-0.304-0.095-0.304-0.304V28.942c0-0.19,0.114-0.304,0.304-0.304h1.974c0.209,0,0.304,0.114,0.304,0.304V41.314z"/>
	<path fill="#FFFFFF" d="M30.165,28.639c0.189,0,0.304,0.114,0.304,0.304v14.572c0,0.19-0.114,0.304-0.304,0.304h-1.974
		c-0.209,0-0.304-0.114-0.304-0.304V28.942c0-0.19,0.095-0.304,0.304-0.304H30.165z"/>
	<path fill="#FFFFFF" d="M39.272,28.639c0.209,0,0.304,0.114,0.304,0.304v1.897c0,0.19-0.095,0.304-0.304,0.304h-2.201v12.372
		c0,0.209-0.095,0.304-0.304,0.304h-1.974c-0.19,0-0.304-0.095-0.304-0.304V31.143h-2.201c-0.19,0-0.304-0.114-0.304-0.304v-1.897
		c0-0.19,0.114-0.304,0.304-0.304H39.272z"/>
</g>
<line fill="none" stroke="#FFFFFF" stroke-miterlimit="10" x1="22.56" y1="65.477" x2="61.686" y2="26.351"/>
</svg>
